<svg xmlns="http://www.w3.org/2000/svg" viewBox="0 0 118 110"><path fill="#fcfbfb" stroke="#fcfbfb" d="M17.4 10.765C14.846 12.47 14 16.37 14 26.434V37h28V10l-11.75.015c-6.463.009-12.245.346-12.85.75m28.6 14.2C46 43.152 47.213 42 28.066 42H14v27h60V10H46v14.965m32 16c0 29.59-.086 31.011-1.934 32-1.208.646-13.032 1.035-31.5 1.035H15v11.845c0 10.205.253 12.074 1.829 13.5 2.711 2.453 84.151 2.532 86.6.084C104.808 98.05 105 92.681 105 55.584 105 5.085 106.653 10 89.671 10H78v30.965" fill-rule="evenodd"/><path fill="#fc7c44" stroke="#fc7c44" d="M17.223 11.557C15.137 13.018 15 13.848 15 25.057V37h26V10H30.223c-8.137 0-11.323.382-13 1.557M47 23.777C47 42.864 47.833 42 29.443 42H15v27h58V10H47v13.777M78.985 40.75c-.009 16.363-.355 30.284-.771 30.937C76.424 74.503 71.209 75 43.435 75H15v10.566C15 101.656 9.837 100 60 100c41.42 0 42.966-.068 43.965-1.934 1.417-2.649 1.417-82.483 0-85.132-.935-1.747-2.194-1.934-13-1.934H79l-.015 29.75" fill-rule="evenodd"/><path fill="#044c74" stroke="#044c74" d="M16.035 12.934c-.569 1.064-1.035 6.914-1.035 13V37h26V11H29.035c-10.806 0-12.065.187-13 1.934m30.95 11.816C46.964 43.329 47.306 43 28.066 43H15v26l25.25-.011c13.888-.006 26.938-.29 29-.631l3.75-.62V11H47l-.015 13.75" fill-rule="evenodd"/></svg>